<?xml version="1.0" encoding="utf-8" standalone="no"?>
<!DOCTYPE svg PUBLIC "-//W3C//DTD SVG 1.1//EN"
  "http://www.w3.org/Graphics/SVG/1.1/DTD/svg11.dtd">
<svg xmlns:xlink="http://www.w3.org/1999/xlink" width="460.8pt" height="345.6pt" viewBox="0 0 460.8 345.6" xmlns="http://www.w3.org/2000/svg" version="1.1">
 <metadata>
  <rdf:RDF xmlns:dc="http://purl.org/dc/elements/1.1/" xmlns:cc="http://creativecommons.org/ns#" xmlns:rdf="http://www.w3.org/1999/02/22-rdf-syntax-ns#">
   <cc:Work>
    <dc:type rdf:resource="http://purl.org/dc/dcmitype/StillImage"/>
    <dc:date>2026-01-28T00:25:31.184369</dc:date>
    <dc:format>image/svg+xml</dc:format>
    <dc:creator>
     <cc:Agent>
      <dc:title>Matplotlib v3.10.8, https://matplotlib.org/</dc:title>
     </cc:Agent>
    </dc:creator>
   </cc:Work>
  </rdf:RDF>
 </metadata>
 <defs>
  <style type="text/css">*{stroke-linejoin: round; stroke-linecap: butt}</style>
 </defs>
 <g id="figure_1">
  <g id="patch_1">
   <path d="M 0 345.6 
L 460.8 345.6 
L 460.8 0 
L 0 0 
z
" style="fill: #ffffff"/>
  </g>
  <g id="axes_1">
   <g id="patch_2">
    <path d="M 54.02 303.64 
L 450 303.64 
L 450 10.8 
L 54.02 10.8 
z
" style="fill: #ffffff"/>
   </g>
   <g id="matplotlib.axis_1">
    <g id="xtick_1">
     <g id="line2d_1">
      <defs>
       <path id="m7e0b02d299" d="M 0 0 
L 0 3.5 
" style="stroke: #000000; stroke-width: 0.8"/>
      </defs>
      <g>
       <use xlink:href="#m7e0b02d299" x="81.470697" y="303.64" style="stroke: #000000; stroke-width: 0.8"/>
      </g>
     </g>
     <g id="text_1">
      <!-- 1 -->
      <g transform="translate(78.289447 318.238437) scale(0.1 -0.1)">
       <defs>
        <path id="DejaVuSans-31" d="M 794 531 
L 1825 531 
L 1825 4091 
L 703 3866 
L 703 4441 
L 1819 4666 
L 2450 4666 
L 2450 531 
L 3481 531 
L 3481 0 
L 794 0 
L 794 531 
z
" transform="scale(0.015625)"/>
       </defs>
       <use xlink:href="#DejaVuSans-31"/>
      </g>
     </g>
    </g>
    <g id="xtick_2">
     <g id="line2d_2">
      <g>
       <use xlink:href="#m7e0b02d299" x="364.730348" y="303.64" style="stroke: #000000; stroke-width: 0.8"/>
      </g>
     </g>
     <g id="text_2">
      <!-- 10 -->
      <g transform="translate(358.367848 318.238437) scale(0.1 -0.1)">
       <defs>
        <path id="DejaVuSans-30" d="M 2034 4250 
Q 1547 4250 1301 3770 
Q 1056 3291 1056 2328 
Q 1056 1369 1301 889 
Q 1547 409 2034 409 
Q 2525 409 2770 889 
Q 3016 1369 3016 2328 
Q 3016 3291 2770 3770 
Q 2525 4250 2034 4250 
z
M 2034 4750 
Q 2819 4750 3233 4129 
Q 3647 3509 3647 2328 
Q 3647 1150 3233 529 
Q 2819 -91 2034 -91 
Q 1250 -91 836 529 
Q 422 1150 422 2328 
Q 422 3509 836 4129 
Q 1250 4750 2034 4750 
z
" transform="scale(0.015625)"/>
       </defs>
       <use xlink:href="#DejaVuSans-31"/>
       <use xlink:href="#DejaVuSans-30" transform="translate(63.623047 0)"/>
      </g>
     </g>
    </g>
    <g id="xtick_3">
     <g id="line2d_3">
      <defs>
       <path id="m158ff8c437" d="M 0 0 
L 0 2 
" style="stroke: #000000; stroke-width: 0.6"/>
      </defs>
      <g>
       <use xlink:href="#m158ff8c437" x="54.02" y="303.64" style="stroke: #000000; stroke-width: 0.6"/>
      </g>
     </g>
    </g>
    <g id="xtick_4">
     <g id="line2d_4">
      <g>
       <use xlink:href="#m158ff8c437" x="68.509446" y="303.64" style="stroke: #000000; stroke-width: 0.6"/>
      </g>
     </g>
    </g>
    <g id="xtick_5">
     <g id="line2d_5">
      <g>
       <use xlink:href="#m158ff8c437" x="166.740348" y="303.64" style="stroke: #000000; stroke-width: 0.6"/>
      </g>
     </g>
    </g>
    <g id="xtick_6">
     <g id="line2d_6">
      <g>
       <use xlink:href="#m158ff8c437" x="216.619897" y="303.64" style="stroke: #000000; stroke-width: 0.6"/>
      </g>
     </g>
    </g>
    <g id="xtick_7">
     <g id="line2d_7">
      <g>
       <use xlink:href="#m158ff8c437" x="252.01" y="303.64" style="stroke: #000000; stroke-width: 0.6"/>
      </g>
     </g>
    </g>
    <g id="xtick_8">
     <g id="line2d_8">
      <g>
       <use xlink:href="#m158ff8c437" x="279.460697" y="303.64" style="stroke: #000000; stroke-width: 0.6"/>
      </g>
     </g>
    </g>
    <g id="xtick_9">
     <g id="line2d_9">
      <g>
       <use xlink:href="#m158ff8c437" x="301.889549" y="303.64" style="stroke: #000000; stroke-width: 0.6"/>
      </g>
     </g>
    </g>
    <g id="xtick_10">
     <g id="line2d_10">
      <g>
       <use xlink:href="#m158ff8c437" x="320.852873" y="303.64" style="stroke: #000000; stroke-width: 0.6"/>
      </g>
     </g>
    </g>
    <g id="xtick_11">
     <g id="line2d_11">
      <g>
       <use xlink:href="#m158ff8c437" x="337.279652" y="303.64" style="stroke: #000000; stroke-width: 0.6"/>
      </g>
     </g>
    </g>
    <g id="xtick_12">
     <g id="line2d_12">
      <g>
       <use xlink:href="#m158ff8c437" x="351.769097" y="303.64" style="stroke: #000000; stroke-width: 0.6"/>
      </g>
     </g>
    </g>
    <g id="xtick_13">
     <g id="line2d_13">
      <g>
       <use xlink:href="#m158ff8c437" x="450" y="303.64" style="stroke: #000000; stroke-width: 0.6"/>
      </g>
     </g>
    </g>
    <g id="text_3">
     <!-- number of worker routines -->
     <g transform="translate(185.488906 331.916562) scale(0.1 -0.1)">
      <defs>
       <path id="DejaVuSans-6e" d="M 3513 2113 
L 3513 0 
L 2938 0 
L 2938 2094 
Q 2938 2591 2744 2837 
Q 2550 3084 2163 3084 
Q 1697 3084 1428 2787 
Q 1159 2491 1159 1978 
L 1159 0 
L 581 0 
L 581 3500 
L 1159 3500 
L 1159 2956 
Q 1366 3272 1645 3428 
Q 1925 3584 2291 3584 
Q 2894 3584 3203 3211 
Q 3513 2838 3513 2113 
z
" transform="scale(0.015625)"/>
       <path id="DejaVuSans-75" d="M 544 1381 
L 544 3500 
L 1119 3500 
L 1119 1403 
Q 1119 906 1312 657 
Q 1506 409 1894 409 
Q 2359 409 2629 706 
Q 2900 1003 2900 1516 
L 2900 3500 
L 3475 3500 
L 3475 0 
L 2900 0 
L 2900 538 
Q 2691 219 2414 64 
Q 2138 -91 1772 -91 
Q 1169 -91 856 284 
Q 544 659 544 1381 
z
M 1991 3584 
L 1991 3584 
z
" transform="scale(0.015625)"/>
       <path id="DejaVuSans-6d" d="M 3328 2828 
Q 3544 3216 3844 3400 
Q 4144 3584 4550 3584 
Q 5097 3584 5394 3201 
Q 5691 2819 5691 2113 
L 5691 0 
L 5113 0 
L 5113 2094 
Q 5113 2597 4934 2840 
Q 4756 3084 4391 3084 
Q 3944 3084 3684 2787 
Q 3425 2491 3425 1978 
L 3425 0 
L 2847 0 
L 2847 2094 
Q 2847 2600 2669 2842 
Q 2491 3084 2119 3084 
Q 1678 3084 1418 2786 
Q 1159 2488 1159 1978 
L 1159 0 
L 581 0 
L 581 3500 
L 1159 3500 
L 1159 2956 
Q 1356 3278 1631 3431 
Q 1906 3584 2284 3584 
Q 2666 3584 2933 3390 
Q 3200 3197 3328 2828 
z
" transform="scale(0.015625)"/>
       <path id="DejaVuSans-62" d="M 3116 1747 
Q 3116 2381 2855 2742 
Q 2594 3103 2138 3103 
Q 1681 3103 1420 2742 
Q 1159 2381 1159 1747 
Q 1159 1113 1420 752 
Q 1681 391 2138 391 
Q 2594 391 2855 752 
Q 3116 1113 3116 1747 
z
M 1159 2969 
Q 1341 3281 1617 3432 
Q 1894 3584 2278 3584 
Q 2916 3584 3314 3078 
Q 3713 2572 3713 1747 
Q 3713 922 3314 415 
Q 2916 -91 2278 -91 
Q 1894 -91 1617 61 
Q 1341 213 1159 525 
L 1159 0 
L 581 0 
L 581 4863 
L 1159 4863 
L 1159 2969 
z
" transform="scale(0.015625)"/>
       <path id="DejaVuSans-65" d="M 3597 1894 
L 3597 1613 
L 953 1613 
Q 991 1019 1311 708 
Q 1631 397 2203 397 
Q 2534 397 2845 478 
Q 3156 559 3463 722 
L 3463 178 
Q 3153 47 2828 -22 
Q 2503 -91 2169 -91 
Q 1331 -91 842 396 
Q 353 884 353 1716 
Q 353 2575 817 3079 
Q 1281 3584 2069 3584 
Q 2775 3584 3186 3129 
Q 3597 2675 3597 1894 
z
M 3022 2063 
Q 3016 2534 2758 2815 
Q 2500 3097 2075 3097 
Q 1594 3097 1305 2825 
Q 1016 2553 972 2059 
L 3022 2063 
z
" transform="scale(0.015625)"/>
       <path id="DejaVuSans-72" d="M 2631 2963 
Q 2534 3019 2420 3045 
Q 2306 3072 2169 3072 
Q 1681 3072 1420 2755 
Q 1159 2438 1159 1844 
L 1159 0 
L 581 0 
L 581 3500 
L 1159 3500 
L 1159 2956 
Q 1341 3275 1631 3429 
Q 1922 3584 2338 3584 
Q 2397 3584 2469 3576 
Q 2541 3569 2628 3553 
L 2631 2963 
z
" transform="scale(0.015625)"/>
       <path id="DejaVuSans-20" transform="scale(0.015625)"/>
       <path id="DejaVuSans-6f" d="M 1959 3097 
Q 1497 3097 1228 2736 
Q 959 2375 959 1747 
Q 959 1119 1226 758 
Q 1494 397 1959 397 
Q 2419 397 2687 759 
Q 2956 1122 2956 1747 
Q 2956 2369 2687 2733 
Q 2419 3097 1959 3097 
z
M 1959 3584 
Q 2709 3584 3137 3096 
Q 3566 2609 3566 1747 
Q 3566 888 3137 398 
Q 2709 -91 1959 -91 
Q 1206 -91 779 398 
Q 353 888 353 1747 
Q 353 2609 779 3096 
Q 1206 3584 1959 3584 
z
" transform="scale(0.015625)"/>
       <path id="DejaVuSans-66" d="M 2375 4863 
L 2375 4384 
L 1825 4384 
Q 1516 4384 1395 4259 
Q 1275 4134 1275 3809 
L 1275 3500 
L 2222 3500 
L 2222 3053 
L 1275 3053 
L 1275 0 
L 697 0 
L 697 3053 
L 147 3053 
L 147 3500 
L 697 3500 
L 697 3744 
Q 697 4328 969 4595 
Q 1241 4863 1831 4863 
L 2375 4863 
z
" transform="scale(0.015625)"/>
       <path id="DejaVuSans-77" d="M 269 3500 
L 844 3500 
L 1563 769 
L 2278 3500 
L 2956 3500 
L 3675 769 
L 4391 3500 
L 4966 3500 
L 4050 0 
L 3372 0 
L 2619 2869 
L 1863 0 
L 1184 0 
L 269 3500 
z
" transform="scale(0.015625)"/>
       <path id="DejaVuSans-6b" d="M 581 4863 
L 1159 4863 
L 1159 1991 
L 2875 3500 
L 3609 3500 
L 1753 1863 
L 3688 0 
L 2938 0 
L 1159 1709 
L 1159 0 
L 581 0 
L 581 4863 
z
" transform="scale(0.015625)"/>
       <path id="DejaVuSans-74" d="M 1172 4494 
L 1172 3500 
L 2356 3500 
L 2356 3053 
L 1172 3053 
L 1172 1153 
Q 1172 725 1289 603 
Q 1406 481 1766 481 
L 2356 481 
L 2356 0 
L 1766 0 
Q 1100 0 847 248 
Q 594 497 594 1153 
L 594 3053 
L 172 3053 
L 172 3500 
L 594 3500 
L 594 4494 
L 1172 4494 
z
" transform="scale(0.015625)"/>
       <path id="DejaVuSans-69" d="M 603 3500 
L 1178 3500 
L 1178 0 
L 603 0 
L 603 3500 
z
M 603 4863 
L 1178 4863 
L 1178 4134 
L 603 4134 
L 603 4863 
z
" transform="scale(0.015625)"/>
       <path id="DejaVuSans-73" d="M 2834 3397 
L 2834 2853 
Q 2591 2978 2328 3040 
Q 2066 3103 1784 3103 
Q 1356 3103 1142 2972 
Q 928 2841 928 2578 
Q 928 2378 1081 2264 
Q 1234 2150 1697 2047 
L 1894 2003 
Q 2506 1872 2764 1633 
Q 3022 1394 3022 966 
Q 3022 478 2636 193 
Q 2250 -91 1575 -91 
Q 1294 -91 989 -36 
Q 684 19 347 128 
L 347 722 
Q 666 556 975 473 
Q 1284 391 1588 391 
Q 1994 391 2212 530 
Q 2431 669 2431 922 
Q 2431 1156 2273 1281 
Q 2116 1406 1581 1522 
L 1381 1569 
Q 847 1681 609 1914 
Q 372 2147 372 2553 
Q 372 3047 722 3315 
Q 1072 3584 1716 3584 
Q 2034 3584 2315 3537 
Q 2597 3491 2834 3397 
z
" transform="scale(0.015625)"/>
      </defs>
      <use xlink:href="#DejaVuSans-6e"/>
      <use xlink:href="#DejaVuSans-75" transform="translate(63.378906 0)"/>
      <use xlink:href="#DejaVuSans-6d" transform="translate(126.757812 0)"/>
      <use xlink:href="#DejaVuSans-62" transform="translate(224.169922 0)"/>
      <use xlink:href="#DejaVuSans-65" transform="translate(287.646484 0)"/>
      <use xlink:href="#DejaVuSans-72" transform="translate(349.169922 0)"/>
      <use xlink:href="#DejaVuSans-20" transform="translate(390.283203 0)"/>
      <use xlink:href="#DejaVuSans-6f" transform="translate(422.070312 0)"/>
      <use xlink:href="#DejaVuSans-66" transform="translate(483.251953 0)"/>
      <use xlink:href="#DejaVuSans-20" transform="translate(518.457031 0)"/>
      <use xlink:href="#DejaVuSans-77" transform="translate(550.244141 0)"/>
      <use xlink:href="#DejaVuSans-6f" transform="translate(632.03125 0)"/>
      <use xlink:href="#DejaVuSans-72" transform="translate(693.212891 0)"/>
      <use xlink:href="#DejaVuSans-6b" transform="translate(734.326172 0)"/>
      <use xlink:href="#DejaVuSans-65" transform="translate(788.611328 0)"/>
      <use xlink:href="#DejaVuSans-72" transform="translate(850.134766 0)"/>
      <use xlink:href="#DejaVuSans-20" transform="translate(891.248047 0)"/>
      <use xlink:href="#DejaVuSans-72" transform="translate(923.035156 0)"/>
      <use xlink:href="#DejaVuSans-6f" transform="translate(961.898438 0)"/>
      <use xlink:href="#DejaVuSans-75" transform="translate(1023.080078 0)"/>
      <use xlink:href="#DejaVuSans-74" transform="translate(1086.458984 0)"/>
      <use xlink:href="#DejaVuSans-69" transform="translate(1125.667969 0)"/>
      <use xlink:href="#DejaVuSans-6e" transform="translate(1153.451172 0)"/>
      <use xlink:href="#DejaVuSans-65" transform="translate(1216.830078 0)"/>
      <use xlink:href="#DejaVuSans-73" transform="translate(1278.353516 0)"/>
     </g>
    </g>
   </g>
   <g id="matplotlib.axis_2">
    <g id="ytick_1">
     <g id="line2d_14">
      <defs>
       <path id="m752e128a16" d="M 0 0 
L -3.5 0 
" style="stroke: #000000; stroke-width: 0.8"/>
      </defs>
      <g>
       <use xlink:href="#m752e128a16" x="54.02" y="303.64" style="stroke: #000000; stroke-width: 0.8"/>
      </g>
     </g>
     <g id="text_4">
      <!-- 1.0 -->
      <g transform="translate(31.116875 307.439219) scale(0.1 -0.1)">
       <defs>
        <path id="DejaVuSans-2e" d="M 684 794 
L 1344 794 
L 1344 0 
L 684 0 
L 684 794 
z
" transform="scale(0.015625)"/>
       </defs>
       <use xlink:href="#DejaVuSans-31"/>
       <use xlink:href="#DejaVuSans-2e" transform="translate(63.623047 0)"/>
       <use xlink:href="#DejaVuSans-30" transform="translate(95.410156 0)"/>
      </g>
     </g>
    </g>
    <g id="ytick_2">
     <g id="line2d_15">
      <g>
       <use xlink:href="#m752e128a16" x="54.02" y="94.160338" style="stroke: #000000; stroke-width: 0.8"/>
      </g>
     </g>
     <g id="text_5">
      <!-- 10.0 -->
      <g transform="translate(24.754375 97.959557) scale(0.1 -0.1)">
       <use xlink:href="#DejaVuSans-31"/>
       <use xlink:href="#DejaVuSans-30" transform="translate(63.623047 0)"/>
       <use xlink:href="#DejaVuSans-2e" transform="translate(127.246094 0)"/>
       <use xlink:href="#DejaVuSans-30" transform="translate(159.033203 0)"/>
      </g>
     </g>
    </g>
    <g id="ytick_3">
     <g id="line2d_16">
      <defs>
       <path id="md2f200ca16" d="M 0 0 
L -2 0 
" style="stroke: #000000; stroke-width: 0.6"/>
      </defs>
      <g>
       <use xlink:href="#md2f200ca16" x="54.02" y="240.580338" style="stroke: #000000; stroke-width: 0.6"/>
      </g>
     </g>
    </g>
    <g id="ytick_4">
     <g id="line2d_17">
      <g>
       <use xlink:href="#md2f200ca16" x="54.02" y="203.692801" style="stroke: #000000; stroke-width: 0.6"/>
      </g>
     </g>
    </g>
    <g id="ytick_5">
     <g id="line2d_18">
      <g>
       <use xlink:href="#md2f200ca16" x="54.02" y="177.520677" style="stroke: #000000; stroke-width: 0.6"/>
      </g>
     </g>
    </g>
    <g id="ytick_6">
     <g id="line2d_19">
      <g>
       <use xlink:href="#md2f200ca16" x="54.02" y="157.22" style="stroke: #000000; stroke-width: 0.6"/>
      </g>
     </g>
    </g>
    <g id="ytick_7">
     <g id="line2d_20">
      <g>
       <use xlink:href="#md2f200ca16" x="54.02" y="140.633139" style="stroke: #000000; stroke-width: 0.6"/>
      </g>
     </g>
    </g>
    <g id="ytick_8">
     <g id="line2d_21">
      <g>
       <use xlink:href="#md2f200ca16" x="54.02" y="126.609149" style="stroke: #000000; stroke-width: 0.6"/>
      </g>
     </g>
    </g>
    <g id="ytick_9">
     <g id="line2d_22">
      <g>
       <use xlink:href="#md2f200ca16" x="54.02" y="114.461015" style="stroke: #000000; stroke-width: 0.6"/>
      </g>
     </g>
    </g>
    <g id="ytick_10">
     <g id="line2d_23">
      <g>
       <use xlink:href="#md2f200ca16" x="54.02" y="103.745602" style="stroke: #000000; stroke-width: 0.6"/>
      </g>
     </g>
    </g>
    <g id="ytick_11">
     <g id="line2d_24">
      <g>
       <use xlink:href="#md2f200ca16" x="54.02" y="31.100677" style="stroke: #000000; stroke-width: 0.6"/>
      </g>
     </g>
    </g>
    <g id="text_6">
     <!-- wall time [seconds] -->
     <g transform="translate(18.674688 205.964531) rotate(-90) scale(0.1 -0.1)">
      <defs>
       <path id="DejaVuSans-61" d="M 2194 1759 
Q 1497 1759 1228 1600 
Q 959 1441 959 1056 
Q 959 750 1161 570 
Q 1363 391 1709 391 
Q 2188 391 2477 730 
Q 2766 1069 2766 1631 
L 2766 1759 
L 2194 1759 
z
M 3341 1997 
L 3341 0 
L 2766 0 
L 2766 531 
Q 2569 213 2275 61 
Q 1981 -91 1556 -91 
Q 1019 -91 701 211 
Q 384 513 384 1019 
Q 384 1609 779 1909 
Q 1175 2209 1959 2209 
L 2766 2209 
L 2766 2266 
Q 2766 2663 2505 2880 
Q 2244 3097 1772 3097 
Q 1472 3097 1187 3025 
Q 903 2953 641 2809 
L 641 3341 
Q 956 3463 1253 3523 
Q 1550 3584 1831 3584 
Q 2591 3584 2966 3190 
Q 3341 2797 3341 1997 
z
" transform="scale(0.015625)"/>
       <path id="DejaVuSans-6c" d="M 603 4863 
L 1178 4863 
L 1178 0 
L 603 0 
L 603 4863 
z
" transform="scale(0.015625)"/>
       <path id="DejaVuSans-5b" d="M 550 4863 
L 1875 4863 
L 1875 4416 
L 1125 4416 
L 1125 -397 
L 1875 -397 
L 1875 -844 
L 550 -844 
L 550 4863 
z
" transform="scale(0.015625)"/>
       <path id="DejaVuSans-63" d="M 3122 3366 
L 3122 2828 
Q 2878 2963 2633 3030 
Q 2388 3097 2138 3097 
Q 1578 3097 1268 2742 
Q 959 2388 959 1747 
Q 959 1106 1268 751 
Q 1578 397 2138 397 
Q 2388 397 2633 464 
Q 2878 531 3122 666 
L 3122 134 
Q 2881 22 2623 -34 
Q 2366 -91 2075 -91 
Q 1284 -91 818 406 
Q 353 903 353 1747 
Q 353 2603 823 3093 
Q 1294 3584 2113 3584 
Q 2378 3584 2631 3529 
Q 2884 3475 3122 3366 
z
" transform="scale(0.015625)"/>
       <path id="DejaVuSans-64" d="M 2906 2969 
L 2906 4863 
L 3481 4863 
L 3481 0 
L 2906 0 
L 2906 525 
Q 2725 213 2448 61 
Q 2172 -91 1784 -91 
Q 1150 -91 751 415 
Q 353 922 353 1747 
Q 353 2572 751 3078 
Q 1150 3584 1784 3584 
Q 2172 3584 2448 3432 
Q 2725 3281 2906 2969 
z
M 947 1747 
Q 947 1113 1208 752 
Q 1469 391 1925 391 
Q 2381 391 2643 752 
Q 2906 1113 2906 1747 
Q 2906 2381 2643 2742 
Q 2381 3103 1925 3103 
Q 1469 3103 1208 2742 
Q 947 2381 947 1747 
z
" transform="scale(0.015625)"/>
       <path id="DejaVuSans-5d" d="M 1947 4863 
L 1947 -844 
L 622 -844 
L 622 -397 
L 1369 -397 
L 1369 4416 
L 622 4416 
L 622 4863 
L 1947 4863 
z
" transform="scale(0.015625)"/>
      </defs>
      <use xlink:href="#DejaVuSans-77"/>
      <use xlink:href="#DejaVuSans-61" transform="translate(81.787109 0)"/>
      <use xlink:href="#DejaVuSans-6c" transform="translate(143.066406 0)"/>
      <use xlink:href="#DejaVuSans-6c" transform="translate(170.849609 0)"/>
      <use xlink:href="#DejaVuSans-20" transform="translate(198.632812 0)"/>
      <use xlink:href="#DejaVuSans-74" transform="translate(230.419922 0)"/>
      <use xlink:href="#DejaVuSans-69" transform="translate(269.628906 0)"/>
      <use xlink:href="#DejaVuSans-6d" transform="translate(297.412109 0)"/>
      <use xlink:href="#DejaVuSans-65" transform="translate(394.824219 0)"/>
      <use xlink:href="#DejaVuSans-20" transform="translate(456.347656 0)"/>
      <use xlink:href="#DejaVuSans-5b" transform="translate(488.134766 0)"/>
      <use xlink:href="#DejaVuSans-73" transform="translate(527.148438 0)"/>
      <use xlink:href="#DejaVuSans-65" transform="translate(579.248047 0)"/>
      <use xlink:href="#DejaVuSans-63" transform="translate(640.771484 0)"/>
      <use xlink:href="#DejaVuSans-6f" transform="translate(695.751953 0)"/>
      <use xlink:href="#DejaVuSans-6e" transform="translate(756.933594 0)"/>
      <use xlink:href="#DejaVuSans-64" transform="translate(820.3125 0)"/>
      <use xlink:href="#DejaVuSans-73" transform="translate(883.789062 0)"/>
      <use xlink:href="#DejaVuSans-5d" transform="translate(935.888672 0)"/>
     </g>
    </g>
   </g>
   <g id="LineCollection_1">
    <path d="M 81.470697 18.751141 
L 81.470697 7.820909 
" clip-path="url(#p7fefe841f8)" style="fill: none; stroke: #1f77b4; stroke-width: 1.5"/>
    <path d="M 166.740348 78.980786 
L 166.740348 68.050554 
" clip-path="url(#p7fefe841f8)" style="fill: none; stroke: #1f77b4; stroke-width: 1.5"/>
    <path d="M 216.619897 117.00269 
L 216.619897 100.582605 
" clip-path="url(#p7fefe841f8)" style="fill: none; stroke: #1f77b4; stroke-width: 1.5"/>
    <path d="M 252.01 144.771234 
L 252.01 122.831308 
" clip-path="url(#p7fefe841f8)" style="fill: none; stroke: #1f77b4; stroke-width: 1.5"/>
    <path d="M 279.460697 151.320127 
L 279.460697 145.859937 
" clip-path="url(#p7fefe841f8)" style="fill: none; stroke: #1f77b4; stroke-width: 1.5"/>
    <path d="M 301.889549 170.2178 
L 301.889549 153.797715 
" clip-path="url(#p7fefe841f8)" style="fill: none; stroke: #1f77b4; stroke-width: 1.5"/>
    <path d="M 320.852873 174.221489 
L 320.852873 168.761299 
" clip-path="url(#p7fefe841f8)" style="fill: none; stroke: #1f77b4; stroke-width: 1.5"/>
    <path d="M 337.279652 184.895018 
L 337.279652 173.964786 
" clip-path="url(#p7fefe841f8)" style="fill: none; stroke: #1f77b4; stroke-width: 1.5"/>
    <path d="M 351.769097 186.132169 
L 351.769097 175.201937 
" clip-path="url(#p7fefe841f8)" style="fill: none; stroke: #1f77b4; stroke-width: 1.5"/>
    <path d="M 364.730348 185.679262 
L 364.730348 180.219071 
" clip-path="url(#p7fefe841f8)" style="fill: none; stroke: #1f77b4; stroke-width: 1.5"/>
    <path d="M 376.455226 190.1933 
L 376.455226 179.263068 
" clip-path="url(#p7fefe841f8)" style="fill: none; stroke: #1f77b4; stroke-width: 1.5"/>
    <path d="M 387.1592 190.791331 
L 387.1592 185.331141 
" clip-path="url(#p7fefe841f8)" style="fill: none; stroke: #1f77b4; stroke-width: 1.5"/>
    <path d="M 397.005903 193.301705 
L 397.005903 187.841514 
" clip-path="url(#p7fefe841f8)" style="fill: none; stroke: #1f77b4; stroke-width: 1.5"/>
    <path d="M 406.122525 195.10379 
L 406.122525 189.6436 
" clip-path="url(#p7fefe841f8)" style="fill: none; stroke: #1f77b4; stroke-width: 1.5"/>
    <path d="M 414.609897 195.049448 
L 414.609897 195.049448 
" clip-path="url(#p7fefe841f8)" style="fill: none; stroke: #1f77b4; stroke-width: 1.5"/>
    <path d="M 422.549303 199.912633 
L 422.549303 194.452443 
" clip-path="url(#p7fefe841f8)" style="fill: none; stroke: #1f77b4; stroke-width: 1.5"/>
   </g>
   <g id="line2d_25">
    <defs>
     <path id="md7461e7af1" d="M 5 0 
L -5 -0 
" style="stroke: #1f77b4"/>
    </defs>
    <g clip-path="url(#p7fefe841f8)">
     <use xlink:href="#md7461e7af1" x="81.470697" y="18.751141" style="fill: #1f77b4; stroke: #1f77b4"/>
     <use xlink:href="#md7461e7af1" x="166.740348" y="78.980786" style="fill: #1f77b4; stroke: #1f77b4"/>
     <use xlink:href="#md7461e7af1" x="216.619897" y="117.00269" style="fill: #1f77b4; stroke: #1f77b4"/>
     <use xlink:href="#md7461e7af1" x="252.01" y="144.771234" style="fill: #1f77b4; stroke: #1f77b4"/>
     <use xlink:href="#md7461e7af1" x="279.460697" y="151.320127" style="fill: #1f77b4; stroke: #1f77b4"/>
     <use xlink:href="#md7461e7af1" x="301.889549" y="170.2178" style="fill: #1f77b4; stroke: #1f77b4"/>
     <use xlink:href="#md7461e7af1" x="320.852873" y="174.221489" style="fill: #1f77b4; stroke: #1f77b4"/>
     <use xlink:href="#md7461e7af1" x="337.279652" y="184.895018" style="fill: #1f77b4; stroke: #1f77b4"/>
     <use xlink:href="#md7461e7af1" x="351.769097" y="186.132169" style="fill: #1f77b4; stroke: #1f77b4"/>
     <use xlink:href="#md7461e7af1" x="364.730348" y="185.679262" style="fill: #1f77b4; stroke: #1f77b4"/>
     <use xlink:href="#md7461e7af1" x="376.455226" y="190.1933" style="fill: #1f77b4; stroke: #1f77b4"/>
     <use xlink:href="#md7461e7af1" x="387.1592" y="190.791331" style="fill: #1f77b4; stroke: #1f77b4"/>
     <use xlink:href="#md7461e7af1" x="397.005903" y="193.301705" style="fill: #1f77b4; stroke: #1f77b4"/>
     <use xlink:href="#md7461e7af1" x="406.122525" y="195.10379" style="fill: #1f77b4; stroke: #1f77b4"/>
     <use xlink:href="#md7461e7af1" x="414.609897" y="195.049448" style="fill: #1f77b4; stroke: #1f77b4"/>
     <use xlink:href="#md7461e7af1" x="422.549303" y="199.912633" style="fill: #1f77b4; stroke: #1f77b4"/>
    </g>
   </g>
   <g id="line2d_26">
    <g clip-path="url(#p7fefe841f8)">
     <use xlink:href="#md7461e7af1" x="81.470697" y="7.820909" style="fill: #1f77b4; stroke: #1f77b4"/>
     <use xlink:href="#md7461e7af1" x="166.740348" y="68.050554" style="fill: #1f77b4; stroke: #1f77b4"/>
     <use xlink:href="#md7461e7af1" x="216.619897" y="100.582605" style="fill: #1f77b4; stroke: #1f77b4"/>
     <use xlink:href="#md7461e7af1" x="252.01" y="122.831308" style="fill: #1f77b4; stroke: #1f77b4"/>
     <use xlink:href="#md7461e7af1" x="279.460697" y="145.859937" style="fill: #1f77b4; stroke: #1f77b4"/>
     <use xlink:href="#md7461e7af1" x="301.889549" y="153.797715" style="fill: #1f77b4; stroke: #1f77b4"/>
     <use xlink:href="#md7461e7af1" x="320.852873" y="168.761299" style="fill: #1f77b4; stroke: #1f77b4"/>
     <use xlink:href="#md7461e7af1" x="337.279652" y="173.964786" style="fill: #1f77b4; stroke: #1f77b4"/>
     <use xlink:href="#md7461e7af1" x="351.769097" y="175.201937" style="fill: #1f77b4; stroke: #1f77b4"/>
     <use xlink:href="#md7461e7af1" x="364.730348" y="180.219071" style="fill: #1f77b4; stroke: #1f77b4"/>
     <use xlink:href="#md7461e7af1" x="376.455226" y="179.263068" style="fill: #1f77b4; stroke: #1f77b4"/>
     <use xlink:href="#md7461e7af1" x="387.1592" y="185.331141" style="fill: #1f77b4; stroke: #1f77b4"/>
     <use xlink:href="#md7461e7af1" x="397.005903" y="187.841514" style="fill: #1f77b4; stroke: #1f77b4"/>
     <use xlink:href="#md7461e7af1" x="406.122525" y="189.6436" style="fill: #1f77b4; stroke: #1f77b4"/>
     <use xlink:href="#md7461e7af1" x="414.609897" y="195.049448" style="fill: #1f77b4; stroke: #1f77b4"/>
     <use xlink:href="#md7461e7af1" x="422.549303" y="194.452443" style="fill: #1f77b4; stroke: #1f77b4"/>
    </g>
   </g>
   <g id="line2d_27">
    <path d="M 62.37488 -1 
L 103.059831 29.087836 
L 138.027917 54.947864 
L 165.224706 75.060768 
L 187.483995 91.522231 
L 206.326059 105.456546 
L 222.661814 117.537365 
L 237.080418 128.200388 
L 249.984965 137.743717 
L 261.663429 146.380319 
L 272.328713 154.267641 
L 282.142667 161.525377 
L 291.231212 168.24665 
L 299.694246 174.505337 
L 307.612353 180.361032 
L 315.051482 185.862508 
L 322.06629 191.050186 
L 328.702583 195.957939 
L 334.999127 200.614436 
L 340.989021 205.044157 
L 346.700752 209.268166 
L 352.159013 213.304726 
L 357.385346 217.169768 
L 362.398662 220.877277 
L 367.215647 224.439593 
L 371.8511 227.867661 
L 376.318209 231.171232 
L 380.628774 234.359034 
L 384.793395 237.438906 
L 388.821633 240.417918 
L 392.722137 243.302467 
L 396.50276 246.09836 
L 400.170653 248.810884 
L 403.732342 251.444869 
L 407.193807 254.004734 
L 410.560533 256.494536 
L 413.837568 258.91801 
L 417.029569 261.278597 
L 420.140835 263.579479 
L 423.175351 265.823602 
L 426.136813 268.013698 
L 429.028654 270.152309 
L 431.854075 272.241798 
L 434.616056 274.284373 
L 437.317386 276.282094 
L 439.96067 278.236887 
L 442.54835 280.150561 
L 445.082718 282.024808 
L 447.565927 283.861221 
L 450 285.661296 
" clip-path="url(#p7fefe841f8)" style="fill: none; stroke-dasharray: 5.55,2.4; stroke-dashoffset: 0; stroke: #000000; stroke-width: 1.5"/>
   </g>
   <g id="line2d_28">
    <defs>
     <path id="m558b3fc8a9" d="M -3 3 
L 3 -3 
M -3 -3 
L 3 3 
" style="stroke: #1f77b4"/>
    </defs>
    <g clip-path="url(#p7fefe841f8)">
     <use xlink:href="#m558b3fc8a9" x="81.470697" y="13.121973" style="fill: #1f77b4; stroke: #1f77b4"/>
     <use xlink:href="#m558b3fc8a9" x="166.740348" y="73.351618" style="fill: #1f77b4; stroke: #1f77b4"/>
     <use xlink:href="#m558b3fc8a9" x="216.619897" y="108.422695" style="fill: #1f77b4; stroke: #1f77b4"/>
     <use xlink:href="#m558b3fc8a9" x="252.01" y="133.141483" style="fill: #1f77b4; stroke: #1f77b4"/>
     <use xlink:href="#m558b3fc8a9" x="279.460697" y="148.549074" style="fill: #1f77b4; stroke: #1f77b4"/>
     <use xlink:href="#m558b3fc8a9" x="301.889549" y="161.637805" style="fill: #1f77b4; stroke: #1f77b4"/>
     <use xlink:href="#m558b3fc8a9" x="320.852873" y="171.450437" style="fill: #1f77b4; stroke: #1f77b4"/>
     <use xlink:href="#m558b3fc8a9" x="337.279652" y="179.26585" style="fill: #1f77b4; stroke: #1f77b4"/>
     <use xlink:href="#m558b3fc8a9" x="351.769097" y="180.503001" style="fill: #1f77b4; stroke: #1f77b4"/>
     <use xlink:href="#m558b3fc8a9" x="364.730348" y="182.908209" style="fill: #1f77b4; stroke: #1f77b4"/>
     <use xlink:href="#m558b3fc8a9" x="376.455226" y="184.564132" style="fill: #1f77b4; stroke: #1f77b4"/>
     <use xlink:href="#m558b3fc8a9" x="387.1592" y="188.020278" style="fill: #1f77b4; stroke: #1f77b4"/>
     <use xlink:href="#m558b3fc8a9" x="397.005903" y="190.530652" style="fill: #1f77b4; stroke: #1f77b4"/>
     <use xlink:href="#m558b3fc8a9" x="406.122525" y="192.332738" style="fill: #1f77b4; stroke: #1f77b4"/>
     <use xlink:href="#m558b3fc8a9" x="414.609897" y="195.049448" style="fill: #1f77b4; stroke: #1f77b4"/>
     <use xlink:href="#m558b3fc8a9" x="422.549303" y="197.14158" style="fill: #1f77b4; stroke: #1f77b4"/>
    </g>
   </g>
   <g id="patch_3">
    <path d="M 54.02 303.64 
L 54.02 10.8 
" style="fill: none; stroke: #000000; stroke-width: 0.8; stroke-linejoin: miter; stroke-linecap: square"/>
   </g>
   <g id="patch_4">
    <path d="M 450 303.64 
L 450 10.8 
" style="fill: none; stroke: #000000; stroke-width: 0.8; stroke-linejoin: miter; stroke-linecap: square"/>
   </g>
   <g id="patch_5">
    <path d="M 54.02 303.64 
L 450 303.64 
" style="fill: none; stroke: #000000; stroke-width: 0.8; stroke-linejoin: miter; stroke-linecap: square"/>
   </g>
   <g id="patch_6">
    <path d="M 54.02 10.8 
L 450 10.8 
" style="fill: none; stroke: #000000; stroke-width: 0.8; stroke-linejoin: miter; stroke-linecap: square"/>
   </g>
  </g>
 </g>
 <defs>
  <clipPath id="p7fefe841f8">
   <rect x="54.02" y="10.8" width="395.98" height="292.84"/>
  </clipPath>
 </defs>
</svg>
